<?xml version="1.0" encoding="UTF-8" standalone="no"?>
<svg
   xmlns:dc="http://purl.org/dc/elements/1.1/"
   xmlns:cc="http://creativecommons.org/ns#"
   xmlns:rdf="http://www.w3.org/1999/02/22-rdf-syntax-ns#"
   xmlns:svg="http://www.w3.org/2000/svg"
   xmlns="http://www.w3.org/2000/svg"
   xmlns:xlink="http://www.w3.org/1999/xlink"
   xmlns:sodipodi="http://sodipodi.sourceforge.net/DTD/sodipodi-0.dtd"
   xmlns:inkscape="http://www.inkscape.org/namespaces/inkscape"
   width="150.92776mm"
   height="139.15187mm"
   viewBox="0 0 150.92776 139.15187"
   version="1.1"
   id="svg8"
   inkscape:version="1.0.1 (3bc2e813f5, 2020-09-07)"
   sodipodi:docname="logo.svg">
  <defs
     id="defs2">
    <inkscape:path-effect
       effect="bspline"
       id="path-effect2589"
       is_visible="true"
       lpeversion="1"
       weight="33.333333"
       steps="2"
       helper_size="0"
       apply_no_weight="true"
       apply_with_weight="true"
       only_selected="false" />
    <inkscape:path-effect
       effect="bspline"
       id="path-effect14"
       is_visible="true"
       lpeversion="1"
       weight="33.333333"
       steps="2"
       helper_size="0"
       apply_no_weight="true"
       apply_with_weight="true"
       only_selected="false" />
    <filter
       style="color-interpolation-filters:sRGB"
       inkscape:label="Drop Shadow"
       id="filter1022">
      <feFlood
         flood-opacity="1"
         flood-color="rgb(0,0,0)"
         result="flood"
         id="feFlood1012" />
      <feComposite
         in="flood"
         in2="SourceGraphic"
         operator="in"
         result="composite1"
         id="feComposite1014" />
      <feGaussianBlur
         in="composite1"
         stdDeviation="3"
         result="blur"
         id="feGaussianBlur1016" />
      <feOffset
         dx="4"
         dy="4"
         result="offset"
         id="feOffset1018" />
      <feComposite
         in="SourceGraphic"
         in2="offset"
         operator="over"
         result="composite2"
         id="feComposite1020" />
    </filter>
    <filter
       style="color-interpolation-filters:sRGB"
       inkscape:label="Drop Shadow"
       id="filter1022-6">
      <feFlood
         flood-opacity="1"
         flood-color="rgb(0,0,0)"
         result="flood"
         id="feFlood1012-4" />
      <feComposite
         in="flood"
         in2="SourceGraphic"
         operator="in"
         result="composite1"
         id="feComposite1014-9" />
      <feGaussianBlur
         in="composite1"
         stdDeviation="3"
         result="blur"
         id="feGaussianBlur1016-6" />
      <feOffset
         dx="4"
         dy="4"
         result="offset"
         id="feOffset1018-1" />
      <feComposite
         in="SourceGraphic"
         in2="offset"
         operator="over"
         result="fbSourceGraphic"
         id="feComposite1020-6" />
      <feColorMatrix
         result="fbSourceGraphicAlpha"
         in="fbSourceGraphic"
         values="0 0 0 -1 0 0 0 0 -1 0 0 0 0 -1 0 0 0 0 1 0"
         id="feColorMatrix2522" />
      <feFlood
         id="feFlood2524"
         flood-opacity="0.470588"
         flood-color="rgb(152,50,115)"
         result="flood"
         in="fbSourceGraphic" />
      <feComposite
         in2="fbSourceGraphic"
         id="feComposite2526"
         in="flood"
         operator="in"
         result="composite1" />
      <feGaussianBlur
         id="feGaussianBlur2528"
         in="composite1"
         stdDeviation="3"
         result="blur" />
      <feOffset
         id="feOffset2530"
         dx="4"
         dy="4"
         result="offset" />
      <feComposite
         in2="offset"
         id="feComposite2532"
         in="fbSourceGraphic"
         operator="over"
         result="composite2" />
    </filter>
  </defs>
  <sodipodi:namedview
     id="base"
     pagecolor="#ffffff"
     bordercolor="#666666"
     borderopacity="1.0"
     inkscape:pageopacity="0.0"
     inkscape:pageshadow="2"
     inkscape:zoom="0.98994949"
     inkscape:cx="142.41168"
     inkscape:cy="210.09519"
     inkscape:document-units="mm"
     inkscape:current-layer="layer1"
     inkscape:document-rotation="0"
     showgrid="false"
     inkscape:window-width="1920"
     inkscape:window-height="1017"
     inkscape:window-x="1912"
     inkscape:window-y="-8"
     inkscape:window-maximized="1" />
  <metadata
     id="metadata5">
    <rdf:RDF>
      <cc:Work
         rdf:about="">
        <dc:format>image/svg+xml</dc:format>
        <dc:type
           rdf:resource="http://purl.org/dc/dcmitype/StillImage" />
        <dc:title></dc:title>
      </cc:Work>
    </rdf:RDF>
  </metadata>
  <g
     inkscape:label="Calque 1"
     inkscape:groupmode="layer"
     id="layer1"
     transform="translate(-38.829132,-44.254661)">
    <path
       id="path12"
       style="fill:#1a1a1a;fill-opacity:1;stroke:#000000;stroke-width:0;stroke-linecap:butt;stroke-linejoin:miter;stroke-miterlimit:4;stroke-dasharray:none;stroke-opacity:1;filter:url(#filter1022)"
       d="m 653.08984,171.67578 c -9.09139,2.23798 -18.1837,4.47558 -46.50586,5.53516 -28.32219,1.05957 -75.87056,0.94008 -105.5996,0.52344 -29.72905,-0.41665 -41.63626,-1.13142 -53.54102,-1.84571 -69.05862,76.90683 -138.11412,153.81168 -186.92188,230.83789 -48.80775,77.02621 -82.9027,169.13664 -94.44921,200.50196 -11.54651,31.36531 -11.66454,32.19152 -11.76368,32.88476 l -8.08984,0.004 -42.70898,0.0644 c -0.0595,0 8.2e-4,-9e-4 -0.0957,6.65039 -0.0965,6.65133 -0.11056,19.95254 -0.125,33.25391 h 1.00977 l 196.18555,0.27734 0.54101,-42.7832 -9.44727,0.0762 c -9.44662,0.0775 -28.3375,0.23344 -37.78515,0.31055 l -9.44727,0.0762 c 0.38347,-1.3587 -2.80634,-5.57379 6.76256,-40.92745 8.87928,-32.80578 12.38421,-54.64548 43.75112,-117.94169 v 0 h 91.61132 v 0 c -3.48058,43.83101 -4.65471,99.24768 -6.14843,157.72851 -18.51949,0.16819 -37.03832,0.33583 -46.63477,0.41993 -9.59645,0.0843 -10.26992,0.084 -10.94336,0.084 l 1.00977,42.93164 313.65234,-0.50586 -2.37695,-44.50195 -48.43555,0.89648 -1.00977,-6.06054 -2.95312,-33.78711 c -2.95245,-33.78683 -9.5167,-108.91266 0.47656,-176.78711 9.99322,-67.87444 41.57561,-162.66024 69.98242,-247.91602 z M 470.83789,218.5293 c 0.26216,0.0328 0.18825,0.5213 -0.0977,1.3164 -1.52481,4.24057 -9.10147,17.20335 -14.99414,30.41992 -5.8927,13.21658 -12.33829,29.00915 -21.70953,47.64342 -10.1809,20.24423 -14.90589,32.97679 -24.21513,57.11635 -6.7156,21.20784 -13.99476,49.32957 -19.01479,83.82227 l -77.58203,-0.0625 c 1.96733,-3.91401 3.98336,-7.83082 6.06445,-11.74414 36.28686,-68.2344 90.10484,-135.3517 119.27735,-171.15235 23.70269,-29.08803 31.13547,-37.50151 32.27148,-37.35937 z"
       transform="matrix(0.26458333,0,0,0.26458333,14.287519,0.16846021)"
       sodipodi:nodetypes="ssscsscccscccccccscccccccccccccscsssssccsssss" />
    <path
       id="path2031"
       style="fill:#0a0a0a;fill-opacity:0.554348;stroke:#000000;stroke-width:0;stroke-linecap:butt;stroke-linejoin:miter;stroke-miterlimit:4;stroke-dasharray:none;stroke-opacity:1;filter:url(#filter1022-6)"
       d="m 615.94697,220.2472 c -42.64481,9.13537 -44.96569,6.64197 -61.50584,8.39231 -44.26335,4.68411 -161.99777,2.96345 -161.99777,2.96345 l -29.28572,0.71428 c -54.05861,54.76397 -65.05739,97.3691 -104.77901,172.26646 -44.33108,83.58876 -82.90271,164.13664 -92.30636,202.64482 -7.9289,32.46902 -11.66454,32.19152 -11.76368,32.88476 l -8.08984,0.004 -40.34571,-0.90048 c -0.0595,0 -0.13771,1.14724 -0.4054,7.79384 -0.27507,6.8299 -1.24283,23.13888 -1.97155,36.70811 v 0 l 313.65234,0.50586 1.00977,-42.93164 v 0 0 c -29.50756,-0.64566 -41.07082,-0.32256 -57.57813,-0.50393 v 0 c -2.20951,-25.72726 53.01864,-142.36093 53.01864,-142.36093 v 0 0 l 39.48605,-0.33178 c 10.47338,27.39809 38.15976,85.05663 43.47188,143.83332 l -56.67969,-0.46295 v 0 l 0.54101,42.7832 197.19532,-0.27734 -0.8162,-39.04593 -50.20332,-0.92677 v 0 l -5.29548,-16.69089 -9.38169,-47.00139 c -6.71758,-55.23048 -13.63995,-111.94 -6.6663,-170.71568 7.44955,-62.7867 19.21603,-108.84651 50.69668,-189.3447 z m -71.50286,59.90501 v 0 0 0 0 0 c -31.33379,58.99502 -38.21721,83.96677 -45.7613,161.57797 l -71.00503,0.94158 v 0 c 2.53942,0 13.12055,-41.17769 38.93121,-78.02438 45.97747,-67.62936 77.78647,-84.46942 77.83512,-84.49517 z"
       transform="matrix(-0.26458333,0,0,0.26458333,210.31793,-0.85986936)"
       sodipodi:nodetypes="csccsscccsccccccccccccccccccccccscccccccccccc" />
    <path
       style="fill:none;stroke:#ffffff;stroke-width:0;stroke-linecap:butt;stroke-linejoin:miter;stroke-miterlimit:4;stroke-dasharray:none;stroke-opacity:1"
       d="m 164.89959,108.01198 c 1.34868,-11.098682 2.69737,-22.197525 5.42828,-31.342314 2.73091,-9.144789 6.8439,-16.335183 10.95701,-23.525794"
       id="path2587"
       inkscape:original-d="m 164.89959,108.01198 c 1.34879,-11.098668 2.69748,-22.197512 4.04608,-33.296496 4.11324,-7.190533 8.22623,-14.380925 12.33921,-21.571612"
       inkscape:path-effect="#path-effect2589" />
    <text
       xml:space="preserve"
       style="font-style:normal;font-weight:normal;font-size:10.5833px;line-height:1.25;font-family:sans-serif;fill:#ffffff;fill-opacity:1;stroke:none;stroke-width:0.264583"
       id="text2593"
       transform="rotate(4.6454054,258.75007,93.263101)"
       inkscape:transform-center-x="2.311269"
       inkscape:transform-center-y="8.2735904"><textPath
         xlink:href="#path2587"
         id="textPath2598"><tspan
           id="tspan2591"
           style="font-style:normal;font-variant:normal;font-weight:normal;font-stretch:normal;font-size:9.87778px;font-family:Gabriola;-inkscape-font-specification:'Gabriola, Normal';font-variant-ligatures:normal;font-variant-caps:normal;font-variant-numeric:normal;font-variant-east-asian:normal;fill:#ffffff;stroke-width:0.264583">May &amp; Augustin</tspan></textPath></text>
  </g>
</svg>
